<?xml version="1.0" encoding="utf-8"?>
<!-- Generator: Adobe Illustrator 21.1.0, SVG Export Plug-In . SVG Version: 6.00 Build 0)  -->
<svg version="1.1" id="Layer_1" xmlns="http://www.w3.org/2000/svg" xmlns:xlink="http://www.w3.org/1999/xlink" x="0px" y="0px"
	 viewBox="0 0 388.1 365.8" style="enable-background:new 0 0 388.1 365.8;" xml:space="preserve">
<title>Asset 1</title>
<g id="Layer_2">
	<g id="Layer_1-2">
		<path d="M380.1,0.1c-0.2,0.1-0.4,0.1-0.5,0.2c-0.4,0.1-0.7,0.2-1,0.4L3.4,202.4C1.3,203.5,0,205.7,0,208c0,3.6,2.9,6.6,6.5,6.6
			l153.6,0.2l-0.8,132.4c0,0,0,0,0,0c0,3.6,2.9,6.5,6.6,6.5c1.6,0,3.2-0.6,4.4-1.7l79.8-72.1l86.7,84c1.2,1.2,2.8,1.8,4.5,1.8
			c3.3-0.1,6-2.5,6.5-5.8L388.1,7.2V6.5c0-0.5-0.1-1.1-0.2-1.6c-0.1-0.2-0.2-0.4-0.3-0.7c-0.2-0.5-0.4-0.9-0.7-1.3
			c-0.1-0.1,0.1-0.1-0.1-0.3c-0.1-0.2-0.3-0.2-0.4-0.4c-0.3-0.4-0.7-0.7-1-1c-0.2-0.2-0.5-0.4-0.8-0.5c-0.2-0.1-0.4-0.2-0.6-0.3
			h-0.3C382.4,0,381.2-0.1,380.1,0.1L380.1,0.1z M336.2,345.4L216.8,229.6L372.3,28.9C372.3,28.9,336.2,345.4,336.2,345.4z
			 M340.7,35.8l-176.8,166l-131.6-0.3L340.7,35.8L340.7,35.8z M325.6,67.8L202.9,226.3c-2,2.6-1.8,6.3,0.6,8.7l37.1,35.8l-68.2,61.6
			l0.6-121.3L325.6,67.8L325.6,67.8z"/>
	</g>
</g>
</svg>
