<svg xmlns="http://www.w3.org/2000/svg" viewBox="0 0 82.35 72.94"><title>9Asset 1</title><g id="Layer_2" data-name="Layer 2"><g id="Layer_1-2" data-name="Layer 1"><path d="M76.4,57.53a26.86,26.86,0,0,1-6.06,5.41c-13.18,9.15-30.73,13.11-45.64,7.2A39.72,39.72,0,0,1,2.13,46.62,39.72,39.72,0,0,1,5.19,14.16,24.22,24.22,0,0,1,11.1,7c4.66-3.62,10.77-4.65,16.61-5.49C39.6-.18,52.31-1.54,63.12,3.71A34.56,34.56,0,0,1,80.25,23.5a41.93,41.93,0,0,1-.07,26.4,24.85,24.85,0,0,1-3.78,7.64Zm1.17-25.47c-1.62-8.86-5.8-17.62-13.16-22.83-5.49-3.89-12.32-5.5-19-5.73s-13.41.86-20,1.93c-3.42.56-6.94,1.15-9.89,3A19.09,19.09,0,0,0,9.83,14,35.08,35.08,0,0,0,7.29,47.89,38.13,38.13,0,0,0,34.41,68.71a41.91,41.91,0,0,0,33.36-8.46,28.38,28.38,0,0,0,8.18-9.7c2.72-5.67,2.75-12.31,1.61-18.5Z"/><path d="M52.58,55.08C46.69,54.75,41,57,35.1,57.56S22.26,56.33,20,50.87c-1.55-3.76-.33-8.17,1.88-11.59A22.23,22.23,0,0,1,29.65,32c5.93-3.33,13.11-3.75,19.83-2.73A27.88,27.88,0,0,1,62,33.94c3.61,2.67,6.28,6.84,6.34,11.33s-2.94,9-7.3,10.07c-2.74.64-5.6-.1-8.41-.26Zm-9.84-9.7A13.62,13.62,0,0,1,54.11,49.3a13.1,13.1,0,0,0,2,1.88c2.32,1.51,5.74.36,7.16-2a7.88,7.88,0,0,0-.38-7.9,15.48,15.48,0,0,0-6.2-5.38A30.78,30.78,0,0,0,38.4,32.57c-2.17.28-4.49.12-8.9,3.82s-5.21,5.16-5.78,8.5A7.78,7.78,0,0,0,28.16,53c1.56.63,3.67.47,4.53-1A13.62,13.62,0,0,1,42.73,45.38Zm-3.41,7.69a25.16,25.16,0,0,1,8.34-1.3c.67,0,1.58-.19,1.55-.86a8.65,8.65,0,0,0-12.93,2.55,5,5,0,0,0,3-.41Z"/><path d="M46.48,16.43a2.61,2.61,0,0,1-.76-3.49,4.14,4.14,0,0,1,3.34-1.85,10.74,10.74,0,0,1,3.9.67,7.15,7.15,0,0,1,2.67,1.3,2.65,2.65,0,0,1,.92,2.67,2.67,2.67,0,0,1-2,1.63,7.86,7.86,0,0,1-2.71,0L48,16.84a4.23,4.23,0,0,1-1.54-.4Z"/><path d="M29.77,18.7a2.61,2.61,0,0,0,.2-3.57,4.14,4.14,0,0,0-3.59-1.3,10.74,10.74,0,0,0-3.75,1.27,7.15,7.15,0,0,0-2.43,1.7,2.65,2.65,0,0,0-.49,2.78,2.67,2.67,0,0,0,2.23,1.3,7.86,7.86,0,0,0,2.68-.42l3.71-1.11a4.23,4.23,0,0,0,1.46-.64Z"/></g></g></svg>